<svg width="1327" height="790" viewBox="0 0 1327 790" fill="none" xmlns="http://www.w3.org/2000/svg">
<g id="Soccer">
<g id="BG">
<path id="BGElement" d="M1326.81 676.002C1322.67 601.075 1262.44 539.984 1187.54 534.863C1153.01 532.438 1118.71 542.016 1090.44 561.975C1062.17 581.934 1041.66 611.046 1032.41 644.382C1030.59 644.316 1028.77 644.243 1026.94 644.243C994.52 644.249 962.975 654.747 937.023 674.164C911.071 693.582 892.106 720.877 882.967 751.965C861.485 742.531 837.48 740.484 814.71 746.145C791.94 751.806 771.692 764.855 757.135 783.249H1225.2C1282.7 783.249 1329.26 735.643 1326.92 678.214C1326.89 677.478 1326.85 676.741 1326.81 676.002Z" fill="#E6E6E6"/>
<path id="Vector" d="M1314.65 781.702H0V784.797H1314.65V781.702Z" fill="#3F3D56"/>
</g>
<g id="RightHand">
        <path id="Vector_2" d="M438.75 278.96C438.75 278.96 379.08 260.382 388.24 290.947C397.4 321.513 447.66 306.074 447.66 306.074L438.75 278.96Z" fill="#FFB8B8"/>
        <path id="Vector_3" d="M666.844 164.235C666.844 164.235 636.264 122.467 606.554 165.827C576.786 209.273 549.109 244.939 549.109 244.939L475.176 269.034L432.404 272.827L444.186 310.836L568.55 292.803C568.55 292.803 707.005 210.598 666.844 164.235Z" fill="#2F2E41"/>
</g>
<g id="Shoe">
<path id="Vector_18" d="M575.257 669.492C573.709 663.301 560.844 635.232 560.308 639.98C559.773 644.728 534.997 652.467 525.706 643.18C525.706 643.18 513.319 632.346 508.673 643.18C504.028 654.014 494.737 672.587 494.737 672.587C494.737 672.587 452.928 692.708 459.122 703.542C460.375 705.733 463.846 706.657 468.584 706.738C468.473 707.025 468.415 707.329 468.413 707.636V708.733C468.413 709.409 468.681 710.057 469.159 710.534C469.637 711.012 470.285 711.28 470.961 711.28H472.058C472.734 711.28 473.382 711.012 473.86 710.534C474.338 710.057 474.607 709.409 474.607 708.733V707.636C474.604 707.241 474.509 706.852 474.328 706.501C475.595 706.39 476.909 706.244 478.259 706.066C477.902 706.512 477.706 707.065 477.704 707.636V708.733C477.704 709.409 477.972 710.057 478.45 710.534C478.928 711.012 479.576 711.28 480.252 711.28H481.349C482.025 711.28 482.673 711.012 483.151 710.534C483.629 710.057 483.898 709.409 483.898 708.733V707.636C483.896 707.183 483.773 706.738 483.542 706.348C483.31 705.958 482.978 705.637 482.58 705.419C486.144 704.824 489.864 704.068 493.562 703.23C493.32 703.624 493.19 704.078 493.188 704.541V705.638C493.188 706.313 493.457 706.961 493.935 707.439C494.413 707.916 495.061 708.185 495.737 708.185H496.834C497.51 708.185 498.158 707.916 498.636 707.439C499.114 706.961 499.382 706.313 499.382 705.638V704.541C499.382 704.048 499.238 703.567 498.97 703.154C498.701 702.742 498.318 702.416 497.867 702.217C500.642 701.541 503.361 700.836 505.949 700.137C505.707 700.531 505.578 700.983 505.576 701.445V702.542C505.576 703.218 505.845 703.866 506.323 704.343C506.8 704.821 507.449 705.089 508.124 705.089H509.222C509.898 705.089 510.546 704.821 511.024 704.343C511.502 703.866 511.77 703.218 511.77 702.542V701.445C511.769 700.904 511.594 700.377 511.272 699.941C510.949 699.506 510.496 699.185 509.978 699.026C519.072 696.465 525.706 694.255 525.706 694.255C525.706 694.255 533.411 691.453 542.739 687.668V688.613C542.739 689.288 543.008 689.936 543.486 690.414C543.964 690.891 544.612 691.16 545.288 691.16H546.385C547.061 691.16 547.709 690.891 548.187 690.414C548.665 689.936 548.933 689.288 548.933 688.613V687.516C548.932 687.13 548.843 686.749 548.672 686.403C548.501 686.056 548.254 685.754 547.948 685.518C549.821 684.731 551.71 683.922 553.579 683.099V683.97C553.579 684.645 553.847 685.293 554.325 685.771C554.803 686.248 555.451 686.517 556.127 686.517H557.224C557.9 686.517 558.548 686.248 559.026 685.771C559.504 685.293 559.773 684.645 559.773 683.97V682.873C559.773 682.463 559.673 682.059 559.483 681.696C559.293 681.333 559.018 681.022 558.682 680.788C560.703 679.846 562.649 678.904 564.443 677.982C564.435 678.065 564.418 678.145 564.418 678.23V679.326C564.418 680.002 564.687 680.65 565.164 681.127C565.642 681.605 566.291 681.873 566.966 681.873H568.064C568.74 681.873 569.388 681.605 569.866 681.127C570.344 680.65 570.612 680.002 570.612 679.326V678.23C570.612 677.642 570.409 677.073 570.037 676.619C569.666 676.164 569.148 675.851 568.573 675.734C572.902 673.221 575.633 670.992 575.257 669.492Z" fill="#2F2E41"/>
</g>
<g id="Body">
        <path id="Vector_4" d="M530.352 395.544C530.352 395.544 483.898 428.047 486.994 457.453C490.091 486.86 510.222 567.342 510.222 567.342L552.03 561.151C552.03 561.151 556.676 499.242 541.191 476.026L615.518 434.238L530.352 395.544Z" fill="#FFB8B8"/>
        <path id="Vector_5" d="M633.325 472.157C633.325 472.157 630.228 529.423 637.97 552.639C645.713 575.854 653.455 662.527 653.455 662.527H696.812C696.812 662.527 716.943 586.688 692.167 552.639C692.167 552.639 684.425 507.755 706.103 486.086L633.325 472.157Z" fill="#FFB8B8"/>
        <path id="Vector_6" d="M623.26 313.515C623.26 313.515 522.609 376.972 522.609 397.092L603.13 463.644L631.002 432.69L627.905 479.122L714.62 496.147C714.62 496.147 745.589 378.52 744.041 373.876C742.492 369.233 737.847 301.133 737.847 301.133L623.26 313.515Z" fill="#2F2E41"/>
        <path id="Vector_7" d="M552.03 553.412L507.125 562.699L515.103 595.483C519.03 611.619 519.477 628.406 516.415 644.728V644.728C516.415 644.728 562.87 657.11 562.87 650.919C562.87 644.728 552.03 619.964 555.127 602.94C558.224 585.915 552.03 553.412 552.03 553.412Z" fill="#6C63FF"/>
        <path id="Vector_8" d="M699.909 655.562L650.854 652.467C650.854 652.467 653.827 703.542 647.881 720.567C641.935 737.592 644.908 743.782 644.908 743.782L688.017 746.878L699.909 655.562Z" fill="#6C63FF"/>
        <path id="Vector_9" d="M700.513 768.445C700.29 762.067 693.563 731.934 692.049 736.466C690.534 740.998 664.689 743.403 657.54 732.385C657.54 732.385 647.684 719.207 640.881 728.835C634.077 738.463 621.116 754.691 621.116 754.691C621.116 754.691 576.029 765.656 579.827 777.543C580.595 779.947 583.797 781.574 588.414 782.641C588.246 782.898 588.126 783.184 588.06 783.484L587.831 784.557C587.69 785.217 587.817 785.907 588.185 786.474C588.553 787.04 589.131 787.438 589.792 787.579L590.865 787.807C591.526 787.948 592.216 787.821 592.783 787.453C593.35 787.086 593.747 786.508 593.888 785.848L594.117 784.775C594.197 784.388 594.185 783.988 594.082 783.607C595.344 783.762 596.659 783.892 598.017 784C597.574 784.361 597.267 784.862 597.146 785.42L596.917 786.493C596.776 787.154 596.904 787.843 597.272 788.41C597.639 788.977 598.217 789.374 598.878 789.515L599.951 789.744C600.612 789.885 601.302 789.757 601.869 789.39C602.436 789.022 602.834 788.444 602.975 787.784L603.204 786.711C603.297 786.267 603.27 785.806 603.125 785.377C602.979 784.947 602.721 784.564 602.377 784.268C605.987 784.429 609.783 784.465 613.575 784.415C613.256 784.751 613.035 785.167 612.936 785.62L612.707 786.693C612.566 787.353 612.694 788.043 613.062 788.61C613.429 789.176 614.007 789.574 614.668 789.715L615.741 789.943C616.402 790.084 617.092 789.957 617.659 789.589C618.226 789.222 618.624 788.644 618.765 787.983L618.994 786.911C619.096 786.429 619.056 785.928 618.879 785.469C618.703 785.009 618.396 784.611 617.997 784.322C620.851 784.239 623.658 784.116 626.334 783.972C626.016 784.307 625.796 784.723 625.697 785.174L625.468 786.247C625.328 786.907 625.455 787.597 625.823 788.164C626.19 788.731 626.768 789.128 627.429 789.269L628.502 789.498C629.163 789.639 629.853 789.511 630.42 789.144C630.987 788.776 631.385 788.198 631.526 787.538L631.755 786.465C631.867 785.935 631.806 785.383 631.581 784.89C631.357 784.397 630.98 783.989 630.507 783.725C639.935 783.116 646.885 782.337 646.885 782.337C646.885 782.337 655.004 781.202 664.918 779.444L664.721 780.369C664.58 781.029 664.707 781.719 665.075 782.286C665.443 782.852 666.021 783.25 666.682 783.391L667.755 783.619C668.416 783.76 669.106 783.633 669.673 783.265C670.24 782.898 670.637 782.32 670.778 781.659L671.007 780.587C671.087 780.209 671.079 779.818 670.984 779.443C670.889 779.069 670.71 778.721 670.46 778.427C672.456 778.048 674.473 777.65 676.472 777.235L676.29 778.086C676.149 778.747 676.277 779.437 676.645 780.003C677.012 780.57 677.59 780.968 678.251 781.109L679.324 781.337C679.985 781.478 680.675 781.351 681.242 780.983C681.809 780.616 682.207 780.038 682.348 779.377L682.577 778.304C682.662 777.904 682.649 777.488 682.539 777.094C682.429 776.699 682.225 776.337 681.945 776.038C684.118 775.538 686.217 775.023 688.165 774.495C688.14 774.574 688.106 774.649 688.089 774.731L687.86 775.804C687.719 776.465 687.846 777.154 688.214 777.721C688.582 778.288 689.16 778.686 689.821 778.826L690.894 779.055C691.555 779.196 692.245 779.068 692.812 778.701C693.379 778.333 693.777 777.756 693.918 777.095L694.146 776.022C694.269 775.448 694.189 774.849 693.92 774.327C693.652 773.805 693.211 773.391 692.673 773.156C697.432 771.601 700.567 769.99 700.513 768.445Z" fill="#2F2E41"/>
        <path id="Vector_10" d="M623.26 112.311C648.061 112.311 668.166 92.2157 668.166 67.427C668.166 42.6382 648.061 22.543 623.26 22.543C598.459 22.543 578.354 42.6382 578.354 67.427C578.354 92.2157 598.459 112.311 623.26 112.311Z" fill="#FFB8B8"/>
        <path id="Vector_11" d="M663.52 62.7838C663.52 62.7838 688.296 93.7383 700.684 92.1906L646.487 133.979C646.487 133.979 640.293 107.668 632.551 104.572C624.809 101.477 663.52 62.7838 663.52 62.7838Z" fill="#FFB8B8"/>
        <path id="Vector_12" d="M760.3 292.621C760.3 292.621 760.296 121.835 731.633 107.123C702.986 92.4199 684.037 84.028 684.037 84.028C683.615 89.6319 682.021 95.085 679.359 100.035C676.697 104.985 673.026 109.322 668.583 112.765C659.084 120.094 649.621 126.172 644.335 126.191L644.164 125.467L643.52 123.627L627.905 147.909C627.905 147.909 613.969 151.004 609.324 160.29C606.811 165.314 618.662 215.889 611.647 261.666C605.695 300.504 580.614 335.564 579.903 339.826C578.701 347.032 609.185 328.154 622.912 319.328C623.115 319.555 623.26 319.706 623.26 319.706C623.26 319.706 615.518 322.801 631.002 318.158C639.776 315.527 652.026 315.382 661 315.749C660.989 318.438 661.052 320.574 661.198 322.028C662.746 337.505 740.17 359.173 751.009 354.53C761.848 349.887 760.3 292.621 760.3 292.621Z" fill="#2F2E41"/>
        <path id="Vector_13" d="M651.907 459.775C651.907 459.775 673.585 439.655 685.973 450.489C698.361 461.323 706.103 469.061 706.103 469.061C706.103 469.061 670.488 447.393 651.907 459.775Z" fill="#6C63FF"/>
        <path id="Vector_14" d="M657.538 700.521C657.538 700.521 669.756 689.181 676.739 695.287C683.721 701.393 688.085 705.755 688.085 705.755C688.085 705.755 668.011 693.542 657.538 700.521Z" fill="#2F2E41"/>
        <path id="Vector_15" d="M520.648 595.037C520.648 595.037 529.035 580.633 537.493 584.444C545.951 588.255 551.396 591.158 551.396 591.158C551.396 591.158 528.636 585.313 520.648 595.037Z" fill="#2F2E41"/>
        <path id="Vector_16" opacity="0.2" d="M726.233 241.546L696.812 352.982L721.588 300.359L726.233 241.546Z" fill="black"/>
        <path id="Vector_17" d="M651.462 15.1079C651.462 15.1079 626.64 -11.0123 601.655 5.43718C576.67 21.8867 564.818 37.8657 567.267 48.9917C569.717 60.1176 576.967 75.5932 576.967 75.5932C576.967 75.5932 572.461 52.5435 593.149 50.8378C613.838 49.1321 642.42 35.4476 642.42 35.4476L661.754 76.716C661.754 76.716 664.487 67.1527 672.065 69.8957C679.643 72.6387 673.769 18.1673 651.462 15.1079Z" fill="#2F2E41"/>
</g>
<g id="LeftHand">
<path id="Vector_19" d="M706.103 351.434C706.103 351.434 659.649 393.223 690.619 400.962C721.588 408.7 733.976 357.625 733.976 357.625L706.103 351.434Z" fill="#FFB8B8"/>
<path id="Vector_20" d="M748.599 128.359C733.25 97.5192 686.545 114.339 694.134 147.939C694.247 148.44 694.366 148.946 694.49 149.456C702.489 181.262 715.56 211.573 733.202 239.224L716.168 315.063L697.587 353.756L736.299 363.042L784.301 246.963C784.301 246.963 771.061 173.488 748.599 128.359Z" fill="#2F2E41"/>
</g>
<g id="SoccerBall">
<path id="Vector_21" d="M492.414 605.261C492.413 609.182 492.086 613.095 491.439 616.962V616.977C489.66 627.379 485.542 637.24 479.393 645.818C473.244 654.396 465.226 661.465 455.945 666.493C446.663 671.52 436.36 674.375 425.813 674.841C415.266 675.307 404.751 673.372 395.062 669.182H395.046C392.179 667.946 389.401 666.513 386.731 664.895C378.456 659.901 371.309 653.243 365.743 645.344C360.177 637.444 356.314 628.475 354.399 619.005C353.501 614.479 353.05 609.875 353.052 605.261C353.052 603.156 353.145 601.067 353.33 599.008V598.993C354.937 581.22 363.308 564.742 376.716 552.959C390.123 541.175 407.545 534.985 425.386 535.666C443.226 536.347 460.125 543.847 472.594 556.619C485.064 569.39 492.153 586.458 492.399 604.302V604.317C492.414 604.642 492.414 604.936 492.414 605.261Z" fill="#6C63FF"/>
<path id="Vector_22" d="M439.886 581.998H408.677L393.072 554.99L403.657 536.653L404.275 536.487C417.675 532.908 431.826 533.304 445.004 537.625L445.565 537.811L455.491 554.99L439.886 581.998ZM410.465 578.903H438.098L451.914 554.99L443.476 540.384C431.231 536.502 418.142 536.132 405.696 539.314L396.649 554.99L410.465 578.903Z" fill="white"/>
<path id="Vector_23" d="M438.337 637.718H407.129L391.524 610.704L407.129 583.69H438.337L453.942 610.704L438.337 637.718ZM408.916 634.623H436.55L450.366 610.704L436.55 586.785H408.916L395.1 610.704L408.916 634.623Z" fill="white"/>
<path id="Vector_24" d="M422.733 676.456C413 676.475 403.369 674.481 394.445 670.601L392.853 669.91L408.676 642.499H439.886L455.042 668.74L453.537 669.463C443.929 674.091 433.398 676.482 422.733 676.456V676.456ZM397.281 668.434C405.795 671.858 414.913 673.529 424.088 673.348C433.264 673.166 442.308 671.136 450.68 667.379L438.098 645.594H410.465L397.281 668.434Z" fill="white"/>
<path id="Vector_25" d="M490.985 609.857H459.777L444.172 582.849L459.776 555.826H473.987L474.445 556.308C486.769 569.267 493.735 586.404 493.947 604.282V604.731L490.985 609.857ZM461.564 606.762H489.198L490.845 603.913C490.545 587.185 484.065 571.159 472.652 558.922H461.565L447.748 582.849L461.564 606.762Z" fill="white"/>
<path id="Vector_26" d="M459.347 666.367L444.172 640.115L459.776 613.092H490.984L492.987 616.544L492.965 617.236C491.274 627.093 487.528 636.483 481.971 644.799C476.414 653.115 469.169 660.17 460.708 665.507L459.347 666.367ZM447.748 640.115L460.407 662.013C468.075 656.92 474.634 650.33 479.689 642.638C484.744 634.946 488.189 626.312 489.819 617.254L489.199 616.187H461.565L447.748 640.115Z" fill="white"/>
<path id="Vector_27" d="M387.282 667.036L385.93 666.219C377.474 661.111 370.171 654.304 364.482 646.229C358.793 638.155 354.843 628.988 352.881 619.309L352.766 618.736L356.029 613.092H387.238L402.842 640.115L387.282 667.036ZM356.034 619.269C357.915 628.155 361.551 636.577 366.729 644.041C371.907 651.506 378.523 657.862 386.19 662.738L399.266 640.115L385.449 616.187H357.817L356.034 619.269Z" fill="white"/>
<path id="Vector_28" d="M387.237 606.762H356.03L351.782 599.424V599.008C353.311 581.468 361.307 565.122 374.218 553.145L374.664 552.731H387.238L402.842 579.754L387.237 606.762ZM357.816 603.667H385.45L399.266 579.754L385.449 555.826H375.886C363.939 567.096 356.489 582.314 354.917 598.658L357.816 603.667Z" fill="white"/>
</g>
</g>
</svg>
